# File created by Blade
# Date/Time:  Fri Jan 16 17:52:57 2015
#---------------------------------------------------------
:version 1.10
:name HOM
:units
  mass 1.0
  length 1.000000
  angle deg
:documentation
     Acclaim Skeleton File
:root
   axis xyz
   order TX TY TZ RX RY RZ
   position 0.000000 0.000000 0.000000
   orientation 0 0 0
:bonedata
   begin
      id 1
      name Spine_dum
      direction 0.000000 1.000000 0.000000
      length 7.170412
      axis 0.0 0.0 0.0 xyz
   end
   begin
      id 2
      name LeftUpLeg_dum
      direction 1.000000 0.000000 0.000000
      length 4.318350
      axis 0.0 0.0 0.0 xyz
   end
   begin
      id 3
      name RightUpLeg_dum
      direction -1.000000 0.000000 0.000000
      length 4.318350
      axis 0.0 0.0 0.0 xyz
   end
   begin
      id 4
      name Spine
      direction 0.000000 1.000000 0.000000
      length 0.000000
      axis 0.0 0.0 0.0 xyz
      dof rx ry rz
   end
   begin
      id 5
      name Spine_dum1
      direction 0.000000 1.000000 0.000000
      length 14.276153
      axis 0.0 0.0 0.0 xyz
   end
   begin
      id 6
      name Spine_dum2
      direction 0.000000 1.000000 0.000000
      length 10.718243
      axis 0.0 0.0 0.0 xyz
   end
   begin
      id 7
      name Spine_dum3
      direction 0.000000 1.000000 0.000000
      length 10.718243
      axis 0.0 0.0 0.0 xyz
   end
   begin
      id 8
      name Head
      direction 0.000000 1.000000 0.000000
      length 4.527550
      axis 0.0 0.0 0.0 xyz
      dof rx ry rz
   end
   begin
      id 9
      name LeftShoulder
      direction 1.000000 0.000000 0.000000
      length 7.058872
      axis 0.0 0.0 -90.0 xyz
      dof rx ry rz
   end
   begin
      id 10
      name LeftArm
      direction 1.000000 0.000000 0.000000
      length 10.955525
      axis 0.0 0.0 -90.0 xyz
      dof rx ry rz
   end
   begin
      id 11
      name LeftForeArm
      direction 1.000000 0.000000 0.000000
      length 8.193716
      axis 0.0 0.0 -90.0 xyz
      dof ry rz rx
   end
   begin
      id 12
      name LeftHand
      direction 0.000000 0.000000 0.000000
      length 0.000000
      axis 0.0 0.0 -90.0 xyz
      dof rx ry rz
   end
   begin
      id 13
      name LeftHand_dum1
      direction 0.000000 0.000000 0.000000
      length 0.000000
      axis 0.0 0.0 -90.0 xyz
   end
   begin
      id 14
      name LeftHand_dum2
      direction 1.000000 0.000000 0.000000
      length 3.937000
      axis 0.0 0.0 -90.0 xyz
   end
   begin
      id 15
      name LeftHandThumb1
      direction 0.000000 0.000000 1.000000
      length 3.937000
      axis 0.0 0.0 -90.0 xyz
      dof rx rz ry
   end
   begin
      id 16
      name RightShoulder
      direction -1.000000 0.000000 0.000000
      length 7.058872
      axis 0.0 0.0 90.0 xyz
      dof rx ry rz
   end
   begin
      id 17
      name RightArm
      direction -1.000000 0.000000 0.000000
      length 10.955525
      axis 0.0 0.0 90.0 xyz
      dof rx ry rz
   end
   begin
      id 18
      name RightForeArm
      direction -1.000000 0.000000 0.000000
      length 8.193716
      axis 0.0 0.0 90.0 xyz
      dof ry rz rx
   end
   begin
      id 19
      name RightHand
      direction 0.000000 0.000000 0.000000
      length 0.000000
      axis 0.0 0.0 90.0 xyz
      dof rx ry rz
   end
   begin
      id 20
      name RightHand_dum1
      direction 0.000000 0.000000 0.000000
      length 0.000000
      axis 0.0 0.0 90.0 xyz
   end
   begin
      id 21
      name RightHand_dum2
      direction -1.000000 0.000000 0.000000
      length 3.937000
      axis 0.0 0.0 90.0 xyz
   end
   begin
      id 22
      name RightHandThumb1
      direction 0.000000 0.000000 1.000000
      length 3.937000
      axis 0.0 0.0 90.0 xyz
      dof rx rz ry
   end
   begin
      id 23
      name LeftUpLeg
      direction 0.000000 -1.000000 0.000000
      length 17.323638
      axis 0.0 0.0 0.0 xyz
      dof rx ry rz
   end
   begin
      id 24
      name LeftLeg
      direction 0.000000 -1.000000 0.000000
      length 16.270368
      axis 0.0 0.0 0.0 xyz
      dof rx ry rz
   end
   begin
      id 25
      name LeftFoot
      direction 0.000000 -0.258819 0.965926
      length 4.922846
      axis 15.0 0.0 0.0 xyz
      dof rx ry rz
   end
   begin
      id 26
      name LeftToeBase
      direction 0.000000 0.000000 1.000000
      length 2.952750
      axis 0.0 0.0 0.0 xyz
      dof rx ry rz
   end
   begin
      id 27
      name RightUpLeg
      direction 0.000000 -1.000000 0.000000
      length 17.323638
      axis 0.0 0.0 0.0 xyz
      dof rx ry rz
   end
   begin
      id 28
      name RightLeg
      direction 0.000000 -1.000000 0.000000
      length 16.270368
      axis 0.0 0.0 0.0 xyz
      dof rx ry rz
   end
   begin
      id 29
      name RightFoot
      direction 0.000000 -0.258819 0.965926
      length 4.922846
      axis 15.0 0.0 0.0 xyz
      dof rx ry rz
   end
   begin
      id 30
      name RightToeBase
      direction 0.000000 0.000000 1.000000
      length 2.952750
      axis 0.0 0.0 0.0 xyz
      dof rx ry rz
   end
:hierarchy
   begin
      root Spine_dum LeftUpLeg_dum RightUpLeg_dum
      Spine_dum Spine
      LeftUpLeg_dum LeftUpLeg
      RightUpLeg_dum RightUpLeg
      Spine Spine_dum1 Spine_dum2 Spine_dum3
      Spine_dum1 Head
      Spine_dum2 LeftShoulder
      Spine_dum3 RightShoulder
      LeftShoulder LeftArm
      LeftArm LeftForeArm
      LeftForeArm LeftHand
      LeftHand LeftHand_dum1 LeftHand_dum2
      LeftHand_dum1 LeftHandThumb1
      RightShoulder RightArm
      RightArm RightForeArm
      RightForeArm RightHand
      RightHand RightHand_dum1 RightHand_dum2
      RightHand_dum1 RightHandThumb1
      LeftUpLeg LeftLeg
      LeftLeg LeftFoot
      LeftFoot LeftToeBase
      RightUpLeg RightLeg
      RightLeg RightFoot
      RightFoot RightToeBase
   end

# File created by Blade
# Date/Time:  Fri Jan 16 17:53:05 2015
# Frame Rate: 120.000 fps
#------------------------------------------------------
:FULLY-SPECIFIED
:DEGREES
218
root -6.373675 35.466642 -12.437484 -4.413163 -4.581663 -5.630881
Spine 10.143466 0.611556 8.024340
Head 29.676806 20.593499 -4.860258
LeftShoulder -27.703333 18.312941 -8.529649
LeftArm 23.029055 -48.545458 -58.012145
LeftForeArm 22.624064 -0.000000 89.006747
LeftHand -10.296962 -0.000000 7.482078
LeftHandThumb1 -26.253704 0.000000 33.147579
RightShoulder -5.985917 -4.215059 -5.397031
RightArm -4.585303 14.138567 62.891495
RightForeArm -24.650481 0.000000 35.975945
RightHand -3.475403 -0.000000 -9.332259
RightHandThumb1 -24.326973 -0.000000 -32.862282
LeftUpLeg 11.214997 13.207173 6.084684
LeftLeg -7.524662 -0.000000 0.000000
LeftFoot -13.789609 28.741528 -8.598773
LeftToeBase 22.113496 -0.000000 -0.000000
RightUpLeg 7.582939 -5.693589 6.933412
RightLeg -2.613918 -0.000000 0.000000
RightFoot -2.706039 -26.468679 1.378217
RightToeBase 12.969073 -0.000000 -0.000000
219
root -6.397043 35.466096 -12.444662 -4.429560 -4.566739 -5.613220
Spine 10.194257 0.528184 8.020418
Head 29.619825 20.359795 -4.819151
LeftShoulder -27.660460 18.308413 -8.605563
LeftArm 22.796966 -48.473582 -58.143317
LeftForeArm 22.948657 -0.000000 89.271762
LeftHand -10.369610 0.000000 7.695924
LeftHandThumb1 -26.253704 0.000000 33.147579
RightShoulder -6.005973 -4.318240 -5.317116
RightArm -4.460911 13.792118 63.320045
RightForeArm -24.848393 -0.000000 35.628343
RightHand -3.451710 -0.000000 -9.459653
RightHandThumb1 -24.326973 -0.000000 -32.862282
LeftUpLeg 11.186230 13.144476 6.100992
LeftLeg -7.461377 -0.000000 0.000000
LeftFoot -13.816949 28.801802 -8.540396
LeftToeBase 22.319545 -0.000000 -0.000000
RightUpLeg 7.573803 -5.806038 6.953177
RightLeg -2.588698 -0.000000 0.000000
RightFoot -2.695731 -26.431748 1.238526
RightToeBase 13.038064 -0.000000 -0.000000
220
root -6.415243 35.465748 -12.450669 -4.419205 -4.644605 -5.603716
Spine 10.201118 0.485750 8.042482
Head 29.588983 20.128495 -4.844964
LeftShoulder -27.661661 18.320674 -8.700035
LeftArm 22.547471 -48.373593 -58.249883
LeftForeArm 23.218473 -0.000000 89.474183
LeftHand -10.225816 0.000000 8.091836
LeftHandThumb1 -26.253704 0.000000 33.147579
RightShoulder -5.968858 -4.426907 -5.293987
RightArm -4.282145 13.286569 63.764489
RightForeArm -24.425079 -0.000000 35.083150
RightHand -3.139186 -0.000000 -9.857774
RightHandThumb1 -24.326973 -0.000000 -32.862282
LeftUpLeg 11.179813 13.197437 6.124863
LeftLeg -7.452634 -0.000000 0.000000
LeftFoot -13.827949 28.821269 -8.576132
LeftToeBase 22.332200 -0.000000 -0.000000
RightUpLeg 7.540224 -5.778603 6.981375
RightLeg -2.559121 -0.000000 0.000000
RightFoot -2.709990 -26.409885 1.165051
RightToeBase 13.015195 -0.000000 -0.000000
221
root -6.440169 35.465072 -12.457538 -4.421443 -4.691322 -5.597694
Spine 10.236818 0.463114 8.050379
Head 29.532466 19.892108 -4.783386
LeftShoulder -27.646196 18.327510 -8.757993
LeftArm 22.416450 -48.310906 -58.463078
LeftForeArm 23.429083 0.000000 89.612096
LeftHand -10.048850 -0.000000 8.049943
LeftHandThumb1 -26.253704 0.000000 33.147579
RightShoulder -6.002555 -4.479479 -5.237637
RightArm -4.189123 12.779692 64.151460
RightForeArm -24.241591 -0.000000 34.681268
RightHand -3.095623 0.000000 -9.877246
RightHandThumb1 -24.326973 -0.000000 -32.862282
LeftUpLeg 11.169076 13.233223 6.163384
LeftLeg -7.423557 -0.000000 0.000000
LeftFoot -13.805488 28.830268 -8.561457
LeftToeBase 22.287233 -0.000000 -0.000000
RightUpLeg 7.534870 -5.693463 7.025475
RightLeg -2.555348 -0.000000 0.000000
RightFoot -2.716037 -26.445040 1.139281
RightToeBase 12.975262 -0.000000 -0.000000
222
root -6.474541 35.464785 -12.465712 -4.406405 -4.753300 -5.622587
Spine 10.246215 0.472413 8.063403
Head 29.473682 19.552830 -4.777759
LeftShoulder -27.613241 18.352406 -8.784193
LeftArm 22.278126 -48.255228 -58.665184
LeftForeArm 23.631954 -0.000000 89.736743
LeftHand -9.962604 -0.000000 8.085931
LeftHandThumb1 -26.253704 0.000000 33.147579
RightShoulder -6.051995 -4.587367 -5.128368
RightArm -4.066271 12.273973 64.501772
RightForeArm -24.068225 0.000000 34.322270
RightHand -3.145624 -0.000000 -9.986961
RightHandThumb1 -24.326973 -0.000000 -32.862282
LeftUpLeg 11.135273 13.281646 6.254052
LeftLeg -7.374784 -0.000000 0.000000
LeftFoot -13.825643 28.806081 -8.654866
LeftToeBase 22.187587 -0.000000 -0.000000
RightUpLeg 7.547231 -5.394682 7.123880
RightLeg -2.610913 -0.000000 0.000000
RightFoot -2.710594 -26.581958 1.266733
RightToeBase 12.893417 -0.000000 -0.000000
223
root -6.501830 35.464438 -12.469357 -4.429798 -4.790942 -5.623885
Spine 10.288705 0.433835 8.082960
Head 29.436193 19.300959 -4.712597
LeftShoulder -27.571395 18.379172 -8.840010
LeftArm 22.129965 -48.207122 -58.830681
LeftForeArm 23.737258 -0.000000 89.822181
LeftHand -9.870729 -0.000000 8.217004
LeftHandThumb1 -26.253704 0.000000 33.147579
RightShoulder -6.054862 -4.678425 -5.062982
RightArm -3.989546 12.011772 64.818481
RightForeArm -24.412905 -0.000000 33.996530
RightHand -3.132379 -0.000000 -9.516164
RightHandThumb1 -24.326973 -0.000000 -32.862282
LeftUpLeg 11.137516 13.298229 6.306987
LeftLeg -7.320603 -0.000000 0.000000
LeftFoot -13.849968 28.820768 -8.666720
LeftToeBase 22.207657 -0.000000 -0.000000
RightUpLeg 7.581116 -5.322221 7.176983
RightLeg -2.633293 -0.000000 0.000000
RightFoot -2.703207 -26.620717 1.219028
RightToeBase 12.876997 -0.000000 -0.000000
224
root -6.526869 35.464361 -12.473982 -4.449151 -4.814870 -5.597307
Spine 10.323387 0.349831 8.065682
Head 29.389829 19.107923 -4.717404
LeftShoulder -27.602053 18.390134 -8.938298
LeftArm 22.044907 -48.128320 -58.986152
LeftForeArm 23.948884 0.000000 89.849997
LeftHand -9.886325 -0.000000 8.348016
LeftHandThumb1 -26.253704 0.000000 33.147579
RightShoulder -6.006080 -4.708094 -5.039047
RightArm -3.947164 11.801804 65.200034
RightForeArm -24.281349 -0.000000 33.591973
RightHand -2.936083 -0.000000 -9.399730
RightHandThumb1 -24.326973 -0.000000 -32.862282
LeftUpLeg 11.105448 13.295177 6.322352
LeftLeg -7.223409 -0.000000 0.000000
LeftFoot -13.906293 28.852191 -8.731322
LeftToeBase 22.223598 -0.000000 -0.000000
RightUpLeg 7.573510 -5.402980 7.191197
RightLeg -2.593672 -0.000000 0.000000
RightFoot -2.703686 -26.592537 1.095117
RightToeBase 12.677527 -0.000000 -0.000000
225
root -6.551371 35.464330 -12.478422 -4.463702 -4.867333 -5.579344
Spine 10.354605 0.296313 8.075913
Head 29.330559 18.837580 -4.772881
LeftShoulder -27.640586 18.394843 -9.060956
LeftArm 21.972295 -48.019102 -59.104052
LeftForeArm 24.063265 0.000000 89.818656
LeftHand -9.714143 -0.000000 8.515980
LeftHandThumb1 -26.253704 0.000000 33.147579
RightShoulder -6.005867 -4.727074 -4.999353
RightArm -3.909167 11.610638 65.493460
RightForeArm -24.614053 -0.000000 33.262407
RightHand -2.778643 -0.000000 -9.465412
RightHandThumb1 -24.326973 -0.000000 -32.862282
LeftUpLeg 11.091607 13.329593 6.350268
LeftLeg -7.155938 -0.000000 0.000000
LeftFoot -13.924233 28.869590 -8.752989
LeftToeBase 22.226060 -0.000000 -0.000000
RightUpLeg 7.559170 -5.419111 7.216769
RightLeg -2.547549 -0.000000 0.000000
RightFoot -2.719807 -26.564511 0.999285
RightToeBase 12.630765 -0.000000 -0.000000
226
root -6.584223 35.464154 -12.483742 -4.478670 -4.901379 -5.577939
Spine 10.382894 0.269728 8.075851
Head 29.270921 18.581568 -4.772259
LeftShoulder -27.636029 18.391778 -9.108761
LeftArm 21.874724 -47.857375 -59.204971
LeftForeArm 24.270878 -0.000000 89.746797
LeftHand -9.589726 0.000000 8.802758
LeftHandThumb1 -26.253704 0.000000 33.147579
RightShoulder -6.055764 -4.797970 -4.910396
RightArm -3.804162 11.071334 65.755013
RightForeArm -24.424418 -0.000000 32.881588
RightHand -2.879273 -0.000000 -9.492790
RightHandThumb1 -24.326973 -0.000000 -32.862282
LeftUpLeg 11.076260 13.325273 6.407090
LeftLeg -7.089023 -0.000000 0.000000
LeftFoot -13.948181 28.888314 -8.768792
LeftToeBase 22.276998 -0.000000 -0.000000
RightUpLeg 7.557956 -5.363269 7.275299
RightLeg -2.519551 -0.000000 0.000000
RightFoot -2.738702 -26.589491 0.958644
RightToeBase 12.641534 -0.000000 -0.000000
227
root -6.615691 35.463481 -12.488583 -4.509303 -4.925267 -5.560074
Spine 10.428924 0.230230 8.066506
Head 29.195319 18.294772 -4.790636
LeftShoulder -27.615521 18.390408 -9.173081
LeftArm 21.764222 -47.721313 -59.251756
LeftForeArm 24.442814 -0.000000 89.618235
LeftHand -9.258145 -0.000000 9.046921
LeftHandThumb1 -26.253704 0.000000 33.147579
RightShoulder -6.082050 -4.902661 -4.838470
RightArm -3.702320 10.772319 66.044825
RightForeArm -24.284190 -0.000000 32.560772
RightHand -2.751604 -0.000000 -9.471952
RightHandThumb1 -24.326973 -0.000000 -32.862282
LeftUpLeg 11.072125 13.268455 6.441574
LeftLeg -7.019904 -0.000000 0.000000
LeftFoot -13.971129 28.955886 -8.804678
LeftToeBase 22.254235 -0.000000 -0.000000
RightUpLeg 7.569946 -5.328751 7.318531
RightLeg -2.491042 -0.000000 0.000000
RightFoot -2.753963 -26.632673 0.872331
RightToeBase 12.623082 -0.000000 -0.000000
228
root -6.652755 35.463559 -12.494369 -4.525286 -4.978496 -5.589820
Spine 10.456679 0.229513 8.114767
Head 29.142910 18.100302 -4.802023
LeftShoulder -27.545706 18.367856 -9.214822
LeftArm 21.582930 -47.602836 -59.284084
LeftForeArm 24.500120 -0.000000 89.511169
LeftHand -8.935009 -0.000000 9.194686
LeftHandThumb1 -26.253704 0.000000 33.147579
RightShoulder -6.094961 -4.975559 -4.739788
RightArm -3.682631 10.459318 66.260876
RightForeArm -24.052569 -0.000000 32.331285
RightHand -2.790310 -0.000000 -9.635047
RightHandThumb1 -24.326973 -0.000000 -32.862282
LeftUpLeg 11.074117 13.305555 6.544040
LeftLeg -6.968263 -0.000000 0.000000
LeftFoot -13.988654 28.954358 -8.811501
LeftToeBase 22.265085 -0.000000 -0.000000
RightUpLeg 7.611043 -5.058671 7.422842
RightLeg -2.532861 -0.000000 0.000000
RightFoot -2.754817 -26.753005 0.987012
RightToeBase 12.531623 -0.000000 -0.000000
229
root -6.686867 35.462919 -12.500362 -4.545477 -5.007737 -5.590893
Spine 10.489623 0.181560 8.122654
Head 29.062893 17.822336 -4.851634
LeftShoulder -27.519419 18.349857 -9.283969
LeftArm 21.467268 -47.483929 -59.354479
LeftForeArm 24.662535 -0.000000 89.364189
LeftHand -8.482380 -0.000000 9.090660
LeftHandThumb1 -26.253704 0.000000 33.147579
RightShoulder -6.105667 -5.007874 -4.690971
RightArm -3.613004 10.198319 66.525960
RightForeArm -23.805434 -0.000000 31.985445
RightHand -2.679503 -0.000000 -9.862384
RightHandThumb1 -24.326973 -0.000000 -32.862282
LeftUpLeg 11.051779 13.241352 6.601601
LeftLeg -6.879352 -0.000000 0.000000
LeftFoot -14.038754 29.013735 -8.837028
LeftToeBase 22.337057 -0.000000 -0.000000
RightUpLeg 7.630950 -4.953361 7.487204
RightLeg -2.536413 -0.000000 0.000000
RightFoot -2.754100 -26.810143 0.957438
RightToeBase 12.459052 -0.000000 -0.000000
230
root -6.715801 35.462809 -12.503729 -4.556809 -5.070537 -5.569735
Spine 10.496923 0.196780 8.145453
Head 29.013384 17.578872 -4.931007
LeftShoulder -27.450538 18.374182 -9.400339
LeftArm 21.329260 -47.357111 -59.349786
LeftForeArm 24.686088 -0.000000 89.200085
LeftHand -8.032890 -0.000000 9.447773
LeftHandThumb1 -26.253704 0.000000 33.147579
RightShoulder -6.144540 -5.070917 -4.643018
RightArm -3.552044 9.926021 66.764168
RightForeArm -23.663356 0.000000 31.677294
RightHand -2.573126 -0.000000 -9.949431
RightHandThumb1 -24.326973 -0.000000 -32.862282
LeftUpLeg 11.030979 13.306938 6.635237
LeftLeg -6.796644 -0.000000 0.000000
LeftFoot -14.060011 29.019420 -8.866248
LeftToeBase 22.297470 -0.000000 -0.000000
RightUpLeg 7.618959 -4.951041 7.520614
RightLeg -2.498493 -0.000000 0.000000
RightFoot -2.748641 -26.797198 0.818510
RightToeBase 12.432516 -0.000000 -0.000000
